<!-- origami.svg -->

<svg id="mySvg" xmlns="http://www.w3.org/2000/svg" xmlns:xlink="http://www.w3.org/1999/xlink"
    viewBox="0 0 1400 1100">

    <path fill-rule="evenodd" fill="rgba(116, 88, 136, 1)" stroke-linejoin="round"
        stroke-width="0.858473"
        d="M 408.905 114.54 C 408.905 114.54 393.016 -13.272 393.016 -13.272 C 393.016 -13.272 461.413 23.1211 461.413 23.1211 C 461.413 23.1211 408.905 114.54 408.905 114.54 Z"
        transform="translate(-360.434 354.345)">
        <animate begin="indefinite" id="morphAnim1"
            values="M408.905 114.54C408.905 114.54 393.016 -13.272 393.016 -13.272C393.016 -13.272 461.413 23.1211 461.413 23.1211C461.413 23.1211 408.905 114.54 408.905 114.54Z;M408.905 114.54C408.905 114.54 393.016 -13.272 393.016 -13.272C393.016 -13.272 461.413 23.1211 461.413 23.1211C461.413 23.1211 408.905 114.54 408.905 114.54Z;M403.836 128.594C403.836 128.594 399.102 -20.5995 399.102 -20.5995C399.102 -20.5995 468.27 16.2036 468.27 16.2036C468.27 16.2036 403.836 128.594 403.836 128.594Z;M417.038 94.0329C417.038 94.0329 421.618 -56.3345 421.618 -56.3345C421.618 -56.3345 490.38 -18.8804 490.38 -18.8804C490.38 -18.8804 417.038 94.0329 417.038 94.0329Z;M444.504 73.0381C444.504 73.0381 435.818 -57.4594 435.818 -57.4594C435.818 -57.4594 502.818 -25.7332 502.818 -25.7332C502.818 -25.7332 444.504 73.0381 444.504 73.0381Z;M643.272 -131.116C643.272 -131.116 668.439 -257.429 668.439 -257.429C668.439 -257.429 721.896 -201.349 721.896 -201.349C721.896 -201.349 643.272 -131.116 643.272 -131.116Z;M950.836 99.0927C950.836 99.0927 960.269 -29.3574 960.269 -29.3574C960.269 -29.3574 1020.22 19.7183 1020.22 19.7183C1020.22 19.7183 950.836 99.0927 950.836 99.0927Z;M882.951 172.802C882.951 172.802 867.276 46.7149 867.276 46.7149C867.276 46.7149 934.75 82.6168 934.75 82.6168C934.75 82.6168 882.951 172.802 882.951 172.802Z;M882.951 172.802C882.951 172.802 867.276 46.7149 867.276 46.7149C867.276 46.7149 934.75 82.6168 934.75 82.6168C934.75 82.6168 882.951 172.802 882.951 172.802Z"
            attributeName="d"
            keySplines="0 0 1 1;0 0 1 1;0 0 1 1;0 0 1 1;0 0 1 1;0 0 1 1;0 0 1 1;0 0 1 1"
            fill="freeze" keyTimes="0;0;0.3;0.4;0.5;0.6;0.7;0.8;1" dur="0.833333s" calcMode="spline" />
    </path>

    <path fill-rule="evenodd" fill="rgba(60, 50, 85, 1)" stroke-linejoin="round"
        stroke-width="0.858473"
        d="M 434.311 -32.2324 C 434.311 -32.2324 360.659 95.9998 360.659 95.9998 C 360.659 95.9998 498.277 135.232 498.277 135.232 C 498.277 135.232 434.311 -32.2324 434.311 -32.2324 Z"
        transform="translate(-312.188 372.886)">
        <animate begin="indefinite" id="morphAnim2"
            values="M434.311 -32.2324C434.311 -32.2324 360.659 95.9998 360.659 95.9998C360.659 95.9998 498.277 135.232 498.277 135.232C498.277 135.232 434.311 -32.2324 434.311 -32.2324Z;M434.311 -32.2324C434.311 -32.2324 360.659 95.9998 360.659 95.9998C360.659 95.9998 498.277 135.232 498.277 135.232C498.277 135.232 434.311 -32.2324 434.311 -32.2324Z;M430.171 -20.0373C430.171 -20.0373 355.589 110.054 355.589 110.054C355.589 110.054 494.138 147.428 494.138 147.428C494.138 147.428 430.171 -20.0373 430.171 -20.0373Z;M453.686 -55.2037C453.686 -55.2037 368.792 75.4926 368.792 75.4926C368.792 75.4926 508.831 113.89 508.831 113.89C508.831 113.89 453.686 -55.2037 453.686 -55.2037Z;M478.054 -84.0471C478.054 -84.0471 396.257 54.4979 396.257 54.4979C396.257 54.4979 533.024 83.267 533.024 83.267C533.024 83.267 478.054 -84.0471 478.054 -84.0471Z;M705.311 -248.171C705.311 -248.171 595.025 -149.656 595.025 -149.656C595.025 -149.656 713.289 -69.0831 713.289 -69.0831C713.289 -69.0831 705.311 -248.171 705.311 -248.171Z;M999.914 -30.7851C999.914 -30.7851 902.589 80.5524 902.589 80.5524C902.589 80.5524 1029.87 145.96 1029.87 145.96C1029.87 145.96 999.914 -30.7851 999.914 -30.7851Z;M907.363 27.7602C907.363 27.7602 834.704 154.262 834.704 154.262C834.704 154.262 970.466 192.965 970.466 192.965C970.466 192.965 907.363 27.7602 907.363 27.7602Z;M907.363 27.7602C907.363 27.7602 834.704 154.262 834.704 154.262C834.704 154.262 970.466 192.965 970.466 192.965C970.466 192.965 907.363 27.7602 907.363 27.7602Z"
            attributeName="d"
            keySplines="0 0 1 1;0 0 1 1;0 0 1 1;0 0 1 1;0 0 1 1;0 0 1 1;0 0 1 1;0 0 1 1"
            fill="freeze" keyTimes="0;0;0.3;0.4;0.5;0.6;0.7;0.8;1" dur="0.833333s" calcMode="spline" />
    </path>

    <path fill-rule="evenodd" fill="rgba(78, 156, 158, 1)" stroke-linejoin="round"
        stroke-width="0.858473"
        d="M 342.47 149.314 C 342.47 149.314 574.381 85.1585 574.381 85.1585 C 574.381 85.1585 383.674 -20.6871 383.674 -20.6871 C 383.674 -20.6871 342.47 149.314 342.47 149.314 Z"
        transform="translate(307.845 647.241)">
        <animate begin="indefinite" id="morphAnim3"
            values="M342.47 149.314C342.47 149.314 574.381 85.1585 574.381 85.1585C574.381 85.1585 383.674 -20.6871 383.674 -20.6871C383.674 -20.6871 342.47 149.314 342.47 149.314Z;M342.47 149.314C342.47 149.314 574.381 85.1585 574.381 85.1585C574.381 85.1585 383.674 -20.6871 383.674 -20.6871C383.674 -20.6871 342.47 149.314 342.47 149.314Z;M349.486 98.293C349.486 98.293 553.789 -7.93278 553.789 -7.93278C553.789 -7.93278 362.349 -88.0456 362.349 -88.0456C362.349 -88.0456 349.486 98.293 349.486 98.293Z;M363.149 69.0165C363.149 69.0165 579.863 -36.9408 579.863 -36.9408C579.863 -36.9408 388.168 -118.688 388.168 -118.688C388.168 -118.688 363.149 69.0165 363.149 69.0165Z;M351.949 42.8673C351.949 42.8673 579.963 52.8773 579.963 52.8773C579.963 52.8773 412.567 -132.38 412.567 -132.38C412.567 -132.38 351.949 42.8673 351.949 42.8673Z;M443.035 76.5078C443.035 76.5078 683.351 88.6453 683.351 88.6453C683.351 88.6453 535.677 -71.8689 535.677 -71.8689C535.677 -71.8689 443.035 76.5078 443.035 76.5078Z;M808.632 245.319C808.632 245.319 1048.61 227.793 1048.61 227.793C1048.61 227.793 882.311 86.6702 882.311 86.6702C882.311 86.6702 808.632 245.319 808.632 245.319Z;M808.393 203.153C808.393 203.153 1037.17 139.864 1037.17 139.864C1037.17 139.864 849.042 35.4468 849.042 35.4468C849.042 35.4468 808.393 203.153 808.393 203.153Z;M808.393 203.153C808.393 203.153 1037.17 139.864 1037.17 139.864C1037.17 139.864 849.042 35.4468 849.042 35.4468C849.042 35.4468 808.393 203.153 808.393 203.153Z"
            attributeName="d"
            keySplines="0 0 1 1;0 0 1 1;0 0 1 1;0 0 1 1;0 0 1 1;0 0 1 1;0 0 1 1;0 0 1 1"
            fill="freeze" keyTimes="0;0;0.3;0.4;0.5;0.6;0.7;0.8;1" dur="0.833333s" calcMode="spline" />
    </path>

    <path fill-rule="evenodd" fill="rgba(116, 88, 136, 1)" stroke-linejoin="round"
        stroke-width="0.858473"
        d="M 336.244 -61.2539 C 336.244 -61.2539 451.17 205.357 451.17 205.357 C 451.17 205.357 533.173 -36.5715 533.173 -36.5715 C 533.173 -36.5715 490.086 -32.454 490.086 -32.454 C 490.086 -32.454 336.244 -61.2539 336.244 -61.2539 Z"
        transform="translate(-199.966 812.925)">
        <animate begin="indefinite" id="morphAnim4"
            values="M336.244 -61.2539C336.244 -61.2539 451.17 205.357 451.17 205.357C451.17 205.357 533.173 -36.5715 533.173 -36.5715C533.173 -36.5715 490.086 -32.454 490.086 -32.454C490.086 -32.454 336.244 -61.2539 336.244 -61.2539Z;M336.244 -61.2539C336.244 -61.2539 451.17 205.357 451.17 205.357C451.17 205.357 533.173 -36.5715 533.173 -36.5715C533.173 -36.5715 490.086 -32.454 490.086 -32.454C490.086 -32.454 336.244 -61.2539 336.244 -61.2539Z;M331.174 -47.1997C331.174 -47.1997 457.255 198.03 457.255 198.03C457.255 198.03 534.478 -29.7938 534.478 -29.7938C534.478 -29.7938 485.946 -20.259 485.946 -20.259C485.946 -20.259 331.174 -47.1997 331.174 -47.1997Z;M328.918 -79.1177C328.918 -79.1177 442.983 168.67 442.983 168.67C442.983 168.67 536.777 -60.4969 536.777 -60.4969C536.777 -60.4969 486.292 -51.1467 486.292 -51.1467C486.292 -51.1467 328.918 -79.1177 328.918 -79.1177Z;M356.445 -101.292C356.445 -101.292 457.182 163.966 457.182 163.966C457.182 163.966 554.268 -93.3724 554.268 -93.3724C554.268 -93.3724 510.202 -84.6645 510.202 -84.6645C510.202 -84.6645 356.445 -101.292 356.445 -101.292Z;M477.094 -293.646C477.094 -293.646 502.217 -4.40876 502.217 -4.40876C502.217 -4.40876 656.232 -208.207 656.232 -208.207C656.232 -208.207 614.041 -217.866 614.041 -217.866C614.041 -217.866 477.094 -293.646 477.094 -293.646Z;M821.131 -64.985C821.131 -64.985 881.654 218.963 881.654 218.963C881.654 218.963 1009.42 -2.23808 1009.42 -2.23808C1009.42 -2.23808 966.362 -6.63278 966.362 -6.63278C966.362 -6.63278 821.131 -64.985 821.131 -64.985Z;M809.105 -6.80872C809.105 -6.80872 922.479 256.204 922.479 256.204C922.479 256.204 1003.38 17.5406 1003.38 17.5406C1003.38 17.5406 960.871 21.6026 960.871 21.6026C960.871 21.6026 809.105 -6.80872 809.105 -6.80872Z;M809.105 -6.80872C809.105 -6.80872 922.479 256.204 922.479 256.204C922.479 256.204 1003.38 17.5406 1003.38 17.5406C1003.38 17.5406 960.871 21.6026 960.871 21.6026C960.871 21.6026 809.105 -6.80872 809.105 -6.80872Z"
            attributeName="d"
            keySplines="0 0 1 1;0 0 1 1;0 0 1 1;0 0 1 1;0 0 1 1;0 0 1 1;0 0 1 1;0 0 1 1"
            fill="freeze" keyTimes="0;0;0.3;0.4;0.5;0.6;0.7;0.8;1" dur="0.833333s" calcMode="spline" />
    </path>

    <path fill-rule="evenodd" fill="rgba(60, 50, 85, 1)" stroke-linejoin="round"
        stroke-width="0.858473"
        d="M 510.669 126.366 C 510.669 126.366 356.827 97.5663 356.827 97.5663 C 356.827 97.5663 463.509 2.90158 463.509 2.90158 C 463.509 2.90158 510.669 126.366 510.669 126.366 Z"
        transform="translate(-220.548 654.104)">
        <animate begin="indefinite" id="morphAnim5"
            values="M510.669 126.366C510.669 126.366 356.827 97.5663 356.827 97.5663C356.827 97.5663 463.509 2.90158 463.509 2.90158C463.509 2.90158 510.669 126.366 510.669 126.366Z;M510.669 126.366C510.669 126.366 356.827 97.5663 356.827 97.5663C356.827 97.5663 463.509 2.90158 463.509 2.90158C463.509 2.90158 510.669 126.366 510.669 126.366Z;M506.529 138.562C506.529 138.562 351.757 111.621 351.757 111.621C351.757 111.621 459.369 15.0967 459.369 15.0967C459.369 15.0967 506.529 138.562 506.529 138.562Z;M506.874 107.673C506.874 107.673 349.5 79.7023 349.5 79.7023C349.5 79.7023 466.218 -16.9924 466.218 -16.9924C466.218 -16.9924 506.874 107.673 506.874 107.673Z;M530.785 74.1557C530.785 74.1557 377.027 57.5283 377.027 57.5283C377.027 57.5283 490.258 -49.1981 490.258 -49.1981C490.258 -49.1981 530.785 74.1557 530.785 74.1557Z;M634.624 -59.0461C634.624 -59.0461 497.677 -134.826 497.677 -134.826C497.677 -134.826 628.742 -191.08 628.742 -191.08C628.742 -191.08 634.624 -59.0461 634.624 -59.0461Z;M986.944 152.187C986.944 152.187 841.714 93.8352 841.714 93.8352C841.714 93.8352 964.86 21.8806 964.86 21.8806C964.86 21.8806 986.944 152.187 986.944 152.187Z;M981.453 180.423C981.453 180.423 829.686 152.011 829.686 152.011C829.686 152.011 934.929 58.6245 934.929 58.6245C934.929 58.6245 981.453 180.423 981.453 180.423Z;M981.453 180.423C981.453 180.423 829.686 152.011 829.686 152.011C829.686 152.011 934.929 58.6245 934.929 58.6245C934.929 58.6245 981.453 180.423 981.453 180.423Z"
            attributeName="d"
            keySplines="0 0 1 1;0 0 1 1;0 0 1 1;0 0 1 1;0 0 1 1;0 0 1 1;0 0 1 1;0 0 1 1"
            fill="freeze" keyTimes="0;0;0.3;0.4;0.5;0.6;0.7;0.8;1" dur="0.833333s" calcMode="spline" />
    </path>

    <path fill-rule="evenodd" fill="rgba(68, 99, 143, 1)" stroke-linejoin="round"
        stroke-width="0.858473"
        d="M 608.085 260.898 C 608.085 260.898 434.519 277.485 434.519 277.485 C 434.519 277.485 266.522 -162.333 266.522 -162.333 C 266.522 -162.333 355.205 -161.736 355.205 -161.736 C 355.205 -161.736 501.919 167.953 501.919 167.953 C 501.919 167.953 608.085 260.898 608.085 260.898 Z"
        transform="translate(-144.399 502.986)">
        <animate begin="indefinite" id="morphAnim6"
            values="M608.085 260.898C608.085 260.898 434.519 277.485 434.519 277.485C434.519 277.485 266.522 -162.333 266.522 -162.333C266.522 -162.333 355.205 -161.736 355.205 -161.736C355.205 -161.736 501.919 167.953 501.919 167.953C501.919 167.953 608.085 260.898 608.085 260.898Z;M608.085 260.898C608.085 260.898 434.519 277.485 434.519 277.485C434.519 277.485 266.522 -162.333 266.522 -162.333C266.522 -162.333 355.205 -161.736 355.205 -161.736C355.205 -161.736 501.919 167.953 501.919 167.953C501.919 167.953 608.085 260.898 608.085 260.898Z;M614.171 253.571C614.171 253.571 430.379 289.68 430.379 289.68C430.379 289.68 262.382 -150.137 262.382 -150.137C262.382 -150.137 296.143 -156.597 296.143 -156.597C296.143 -156.597 470.819 235.927 470.819 235.927C470.819 235.927 614.171 253.571 614.171 253.571Z;M621.917 223.382C621.917 223.382 430.725 258.792 430.725 258.792C430.725 258.792 285.897 -185.304 285.897 -185.304C285.897 -185.304 321.006 -191.634 321.006 -191.634C321.006 -191.634 475.693 204.84 475.693 204.84C475.693 204.84 621.917 223.382 621.917 223.382Z;M609.569 194.657C609.569 194.657 454.636 225.274 454.636 225.274C454.636 225.274 310.265 -214.147 310.265 -214.147C310.265 -214.147 411.083 -226.267 411.083 -226.267C411.083 -226.267 540.3 101.358 540.3 101.358C540.3 101.358 609.569 194.657 609.569 194.657Z;M728.432 130.985C728.432 130.985 558.474 92.0724 558.474 92.0724C558.474 92.0724 537.521 -378.271 537.521 -378.271C537.521 -378.271 621.504 -349.779 621.504 -349.779C621.504 -349.779 656.935 9.33739 656.935 9.33739C656.935 9.33739 728.432 130.985 728.432 130.985Z;M1084.25 321.009C1084.25 321.009 910.795 303.306 910.795 303.306C910.795 303.306 832.125 -160.885 832.125 -160.885C832.125 -160.885 918.976 -142.943 918.976 -142.943C918.976 -142.943 998.328 209.084 998.328 209.084C998.328 209.084 1084.25 321.009 1084.25 321.009Z;M1076.53 315.178C1076.53 315.178 905.303 331.541 905.303 331.541C905.303 331.541 739.574 -102.34 739.574 -102.34C739.574 -102.34 827.059 -101.751 827.059 -101.751C827.059 -101.751 971.793 223.488 971.793 223.488C971.793 223.488 1076.53 315.178 1076.53 315.178Z;M1076.53 315.178C1076.53 315.178 905.303 331.541 905.303 331.541C905.303 331.541 739.574 -102.34 739.574 -102.34C739.574 -102.34 827.059 -101.751 827.059 -101.751C827.059 -101.751 971.793 223.488 971.793 223.488C971.793 223.488 1076.53 315.178 1076.53 315.178Z"
            attributeName="d"
            keySplines="0 0 1 1;0 0 1 1;0 0 1 1;0 0 1 1;0 0 1 1;0 0 1 1;0 0 1 1;0 0 1 1"
            fill="freeze" keyTimes="0;0;0.3;0.4;0.5;0.6;0.7;0.8;1" dur="0.833333s" calcMode="spline" />
    </path>

    <path fill-rule="evenodd" fill="rgba(37, 56, 70, 1)" stroke-linejoin="round"
        stroke-width="0.858473"
        d="M 389.472 32.0353 C 389.472 32.0353 495.638 124.981 495.638 124.981 C 495.638 124.981 446.959 2.86666 446.959 2.86666 C 446.959 2.86666 389.472 32.0353 389.472 32.0353 Z"
        transform="translate(-31.9522 638.903)">
        <animate begin="indefinite" id="morphAnim7"
            values="M389.472 32.0353C389.472 32.0353 495.638 124.981 495.638 124.981C495.638 124.981 446.959 2.86666 446.959 2.86666C446.959 2.86666 389.472 32.0353 389.472 32.0353Z;M389.472 32.0353C389.472 32.0353 495.638 124.981 495.638 124.981C495.638 124.981 446.959 2.86666 446.959 2.86666C446.959 2.86666 389.472 32.0353 389.472 32.0353Z;M358.373 100.009C358.373 100.009 501.724 117.654 501.724 117.654C501.724 117.654 445.377 40.7225 445.377 40.7225C445.377 40.7225 358.373 100.009 358.373 100.009Z;M363.246 68.9221C363.246 68.9221 509.471 87.4651 509.471 87.4651C509.471 87.4651 456.426 9.64191 456.426 9.64191C456.426 9.64191 363.246 68.9221 363.246 68.9221Z;M427.853 -34.5608C427.853 -34.5608 497.123 58.7402 497.123 58.7402C497.123 58.7402 455.929 -50.2686 455.929 -50.2686C455.929 -50.2686 427.853 -34.5608 427.853 -34.5608Z;M544.489 -126.581C544.489 -126.581 615.986 -4.93161 615.986 -4.93161C615.986 -4.93161 608.237 -136.163 608.237 -136.163C608.237 -136.163 544.489 -126.581 544.489 -126.581Z;M885.882 73.1658C885.882 73.1658 971.804 185.093 971.804 185.093C971.804 185.093 947.966 55.8122 947.966 55.8122C947.966 55.8122 885.882 73.1658 885.882 73.1658Z;M859.347 87.5702C859.347 87.5702 964.08 179.262 964.08 179.262C964.08 179.262 916.058 58.7951 916.058 58.7951C916.058 58.7951 859.347 87.5702 859.347 87.5702Z;M859.347 87.5702C859.347 87.5702 964.08 179.262 964.08 179.262C964.08 179.262 916.058 58.7951 916.058 58.7951C916.058 58.7951 859.347 87.5702 859.347 87.5702Z"
            attributeName="d"
            keySplines="0 0 1 1;0 0 1 1;0 0 1 1;0 0 1 1;0 0 1 1;0 0 1 1;0 0 1 1;0 0 1 1"
            fill="freeze" keyTimes="0;0;0.3;0.4;0.5;0.6;0.7;0.8;1" dur="0.833333s" calcMode="spline" />
    </path>

    <path fill-rule="evenodd" fill="rgba(43, 101, 102, 1)" stroke-linejoin="round"
        stroke-width="0.858473"
        d="M 295.506 175.258 C 295.506 175.258 459.079 366.44 459.079 366.44 C 459.079 366.44 610.454 -258.095 610.454 -258.095 C 610.454 -258.095 470.149 86.6448 470.149 86.6448 C 470.149 86.6448 295.506 175.258 295.506 175.258 Z"
        transform="translate(191.235 430.114)">
        <animate begin="indefinite" id="morphAnim8"
            values="M295.506 175.258C295.506 175.258 459.079 366.44 459.079 366.44C459.079 366.44 610.454 -258.095 610.454 -258.095C610.454 -258.095 470.149 86.6448 470.149 86.6448C470.149 86.6448 295.506 175.258 295.506 175.258Z;M295.506 175.258C295.506 175.258 459.079 366.44 459.079 366.44C459.079 366.44 610.454 -258.095 610.454 -258.095C610.454 -258.095 470.149 86.6448 470.149 86.6448C470.149 86.6448 295.506 175.258 295.506 175.258Z;M316.442 185.287C316.442 185.287 466.094 315.419 466.094 315.419C466.094 315.419 506.133 -264.52 506.133 -264.52C506.133 -264.52 407.486 123.247 407.486 123.247C407.486 123.247 316.442 185.287 316.442 185.287Z;M334.179 154.213C334.179 154.213 479.758 286.143 479.758 286.143C479.758 286.143 557.626 -298.048 557.626 -298.048C557.626 -298.048 431.685 92.1795 431.685 92.1795C431.685 92.1795 334.179 154.213 334.179 154.213Z;M347.393 94.3739C347.393 94.3739 468.558 259.994 468.558 259.994C468.558 259.994 677.968 -345.418 677.968 -345.418C677.968 -345.418 519.409 -1.86843 519.409 -1.86843C519.409 -1.86843 347.393 94.3739 347.393 94.3739Z;M464.596 60.6695C464.596 60.6695 559.645 293.634 559.645 293.634C559.645 293.634 899.983 -251.46 899.983 -251.46C899.983 -251.46 658.258 31.5591 658.258 31.5591C658.258 31.5591 464.596 60.6695 464.596 60.6695Z;M802.248 242.947C802.248 242.947 925.241 462.445 925.241 462.445C925.241 462.445 1195.92 -120.385 1195.92 -120.385C1195.92 -120.385 990.856 190.228 990.856 190.228C990.856 190.228 802.248 242.947 802.248 242.947Z;M763.637 231.678C763.637 231.678 925.002 420.279 925.002 420.279C925.002 420.279 1074.33 -195.826 1074.33 -195.826C1074.33 -195.826 935.922 144.26 935.922 144.26C935.922 144.26 763.637 231.678 763.637 231.678Z;M763.637 231.678C763.637 231.678 925.002 420.279 925.002 420.279C925.002 420.279 1074.33 -195.826 1074.33 -195.826C1074.33 -195.826 935.922 144.26 935.922 144.26C935.922 144.26 763.637 231.678 763.637 231.678Z"
            attributeName="d"
            keySplines="0 0 1 1;0 0 1 1;0 0 1 1;0 0 1 1;0 0 1 1;0 0 1 1;0 0 1 1;0 0 1 1"
            fill="freeze" keyTimes="0;0;0.3;0.4;0.5;0.6;0.7;0.8;1" dur="0.833333s" calcMode="spline" />
    </path>

    <path fill-rule="evenodd" fill="rgba(80, 175, 153, 1)" stroke-linejoin="round"
        stroke-width="0.858473"
        d="M 762.213 -182.597 C 762.213 -182.597 621.909 162.143 621.909 162.143 C 621.909 162.143 318.044 316.322 318.044 316.322 C 318.044 316.322 129.571 -107.207 129.571 -107.207 C 129.571 -107.207 378.966 -215.028 378.966 -215.028 C 378.966 -215.028 762.213 -182.597 762.213 -182.597 Z"
        transform="translate(39.4757 354.616)">
        <animate begin="indefinite" id="morphAnim9"
            values="M762.213 -182.597C762.213 -182.597 621.909 162.143 621.909 162.143C621.909 162.143 318.044 316.322 318.044 316.322C318.044 316.322 129.571 -107.207 129.571 -107.207C129.571 -107.207 378.966 -215.028 378.966 -215.028C378.966 -215.028 762.213 -182.597 762.213 -182.597Z;M762.213 -182.597C762.213 -182.597 621.909 162.143 621.909 162.143C621.909 162.143 318.044 316.322 318.044 316.322C318.044 316.322 129.571 -107.207 129.571 -107.207C129.571 -107.207 378.966 -215.028 378.966 -215.028C378.966 -215.028 762.213 -182.597 762.213 -182.597Z;M657.893 -189.022C657.893 -189.022 559.246 198.745 559.246 198.745C559.246 198.745 286.945 384.295 286.945 384.295C286.945 384.295 98.4717 -39.2333 98.4717 -39.2333C98.4717 -39.2333 316.304 -178.426 316.304 -178.426C316.304 -178.426 657.893 -189.022 657.893 -189.022Z;M709.385 -222.55C709.385 -222.55 583.445 167.678 583.445 167.678C583.445 167.678 291.819 353.209 291.819 353.209C291.819 353.209 124.913 -74.582 124.913 -74.582C124.913 -74.582 357.62 -213.688 357.62 -213.688C357.62 -213.688 709.385 -222.55 709.385 -222.55Z;M829.728 -269.92C829.728 -269.92 671.17 73.63 671.17 73.63C671.17 73.63 356.425 249.726 356.425 249.726C356.425 249.726 190.43 -171.152 190.43 -171.152C190.43 -171.152 449.03 -307.017 449.03 -307.017C449.03 -307.017 829.728 -269.92 829.728 -269.92Z;M1051.74 -175.962C1051.74 -175.962 810.018 107.057 810.018 107.057C810.018 107.057 473.062 157.706 473.062 157.706C473.062 157.706 427.546 -303.626 427.546 -303.626C427.546 -303.626 698.206 -327.428 698.206 -327.428C698.206 -327.428 1051.74 -175.962 1051.74 -175.962Z;M1347.68 -44.8871C1347.68 -44.8871 1142.62 265.726 1142.62 265.726C1142.62 265.726 814.454 357.452 814.454 357.452C814.454 357.452 712.516 -94.7726 712.516 -94.7726C712.516 -94.7726 978.19 -151.699 978.19 -151.699C978.19 -151.699 1347.68 -44.8871 1347.68 -44.8871Z;M1226.09 -120.328C1226.09 -120.328 1087.68 219.759 1087.68 219.759C1087.68 219.759 787.919 371.857 787.919 371.857C787.919 371.857 601.99 -45.9556 601.99 -45.9556C601.99 -45.9556 848.019 -152.322 848.019 -152.322C848.019 -152.322 1226.09 -120.328 1226.09 -120.328Z;M1226.09 -120.328C1226.09 -120.328 1087.68 219.759 1087.68 219.759C1087.68 219.759 787.919 371.857 787.919 371.857C787.919 371.857 601.99 -45.9556 601.99 -45.9556C601.99 -45.9556 848.019 -152.322 848.019 -152.322C848.019 -152.322 1226.09 -120.328 1226.09 -120.328Z"
            attributeName="d"
            keySplines="0 0 1 1;0 0 1 1;0 0 1 1;0 0 1 1;0 0 1 1;0 0 1 1;0 0 1 1;0 0 1 1"
            fill="freeze" keyTimes="0;0;0.3;0.4;0.5;0.6;0.7;0.8;1" dur="0.833333s" calcMode="spline" />
    </path>

    <g transform="translate(-177.048 406.336)">
        <path id="frame" d="M0 0" stroke="rgba(0, 0, 0, 1)" stroke-linejoin="round" fill="none"
            stroke-linecap="round" stroke-width="14" fill-rule="evenodd">
            <animate begin="indefinite" id="morphAnim10" keyTimes="0;0;0.8;0.86;0.9;1"
                values="M539.635 -393.82C539.635 -393.82 539.636 -393.82 539.636 -393.82C539.636 -393.82 539.636 -393.82 539.636 -393.82C539.636 -393.82 539.635 -393.82 539.635 -393.82C539.635 -393.82 539.635 -393.82 539.635 -393.82;M539.635 -393.82C539.635 -393.82 539.636 -393.82 539.636 -393.82C539.636 -393.82 539.636 -393.82 539.636 -393.82C539.636 -393.82 539.635 -393.82 539.635 -393.82C539.635 -393.82 539.635 -393.82 539.635 -393.82;M539.635 -393.82C539.635 -393.82 539.636 -393.82 539.636 -393.82C539.636 -393.82 539.636 -393.82 539.636 -393.82C539.636 -393.82 539.635 -393.82 539.635 -393.82C539.635 -393.82 539.635 -393.82 539.635 -393.82;M539.727 450.757C539.727 450.757 539.636 450.501 539.636 450.501C539.636 450.501 539.636 -393.82 539.636 -393.82C539.636 -393.82 1383.96 -393.82 1383.96 -393.82C1383.96 -393.82 1383.97 -393.806 1383.97 -393.806;M776.66 450.501C776.66 450.501 539.636 450.501 539.636 450.501C539.636 450.501 539.636 -393.82 539.636 -393.82C539.636 -393.82 1383.96 -393.82 1383.96 -393.82C1383.96 -393.82 1383.96 -197.915 1383.96 -197.915;M776.66 450.501C776.66 450.501 539.636 450.501 539.636 450.501C539.636 450.501 539.636 -393.82 539.636 -393.82C539.636 -393.82 1383.96 -393.82 1383.96 -393.82C1383.96 -393.82 1383.96 -197.915 1383.96 -197.915"
                attributeName="d" fill="freeze" calcMode="spline"
                keySplines="0 0 1 1;0 0 1 1;0 0 1 1;0 0 1 1;0 0 1 1" dur="0.833333s" />
        </path>
        <animate begin="indefinite" id="morphAnim11" keyTimes="0;0.78;0.8;1" values="0;0;1;1"
            attributeName="opacity" fill="freeze" calcMode="spline"
            keySplines="0 0 1 1;0 0 1 1;0 0 1 1"
            dur="0.833333s" />
    </g>

    <g transform="translate(850.966 765.068)">
        <path id="textToad"
            d="M47.3015 83.4108C48.5579 83.4108 49.643 83.8676 50.5569 84.7814C51.4707 85.6953 51.9275 86.7804 51.9275 88.0368C51.9275 88.0368 51.9275 94.2049 51.9275 94.2049C51.9275 95.4613 51.4707 96.5464 50.5569 97.4602C49.643 98.374 48.5579 98.8309 47.3015 98.8309C47.3015 98.8309 15.2617 98.8309 15.2617 98.8309C15.2617 98.8309 15.2617 198.72 15.2617 198.72C15.2617 199.976 14.8048 201.061 13.891 201.975C12.9772 202.889 11.8921 203.346 10.6356 203.346C10.6356 203.346 3.61087 203.346 3.61087 203.346C2.35445 203.346 1.26933 202.889 0.355519 201.975C-0.558296 201.061 -1.01516 199.976 -1.01516 198.72C-1.01516 198.72 -1.01516 98.8308 -1.01516 98.8308C-1.01516 98.8308 -33.0549 98.8308 -33.0549 98.8308C-34.3114 98.8308 -35.3965 98.374 -36.3103 97.4601C-37.2241 96.5463 -37.6809 95.4612 -37.6809 94.2048C-37.6809 94.2048 -37.6809 88.0367 -37.6809 88.0367C-37.6809 86.7802 -37.2241 85.6951 -36.3103 84.7813C-35.3964 83.8675 -34.3113 83.4107 -33.0549 83.4107C-33.0549 83.4107 47.3015 83.4108 47.3015 83.4108ZM113.437 81.6974C123.146 81.6974 131.542 83.7534 138.624 87.8655C145.705 91.9776 151.074 97.5745 154.729 104.656C158.498 111.624 160.497 119.448 160.726 128.129C160.954 134.983 161.069 140.066 161.069 143.378C161.069 146.691 160.954 151.774 160.726 158.627C160.383 167.308 158.327 175.19 154.558 182.271C150.902 189.239 145.534 194.779 138.452 198.891C131.484 203.003 123.146 205.059 113.437 205.059C103.728 205.059 95.3328 203.003 88.2509 198.891C81.2831 194.779 75.9147 189.239 72.1454 182.271C68.4902 175.19 66.4913 167.308 66.1487 158.627C66.0346 155.2 65.9775 150.118 65.9775 143.378C65.9775 136.639 66.0346 131.556 66.1487 128.129C66.3773 119.448 68.319 111.624 71.9741 104.656C75.7435 97.5745 81.1691 91.9776 88.251 87.8655C95.3329 83.7534 103.728 81.6974 113.437 81.6974C113.437 81.6974 113.437 81.6974 113.437 81.6974ZM113.437 97.1175C104.299 97.1175 96.9318 99.8018 91.3348 105.17C85.7379 110.539 82.7681 118.477 82.4254 128.986C82.3113 132.413 82.2543 137.21 82.2543 143.378C82.2543 149.546 82.3113 154.344 82.4254 157.77C82.7681 168.279 85.7379 176.218 91.3348 181.586C96.9318 186.955 104.299 189.639 113.437 189.639C122.575 189.639 129.942 186.955 135.539 181.586C141.136 176.218 144.106 168.279 144.449 157.77C144.678 150.917 144.792 146.12 144.792 143.378C144.792 140.637 144.678 135.84 144.449 128.986C144.106 118.477 141.136 110.539 135.539 105.17C129.942 99.8018 122.575 97.1175 113.437 97.1175ZM199.448 176.275C199.448 176.275 190.538 199.062 190.538 199.062C189.51 201.918 187.283 203.346 183.856 203.346C183.856 203.346 177.517 203.346 177.517 203.346C176.489 203.346 175.575 203.003 174.775 202.318C174.09 201.518 173.747 200.604 173.747 199.576C173.747 199.005 173.976 198.206 174.433 197.178C174.433 197.178 216.41 89.0649 216.41 89.0649C217.895 85.2954 220.465 83.4108 224.12 83.4108C224.12 83.4108 234.4 83.4108 234.4 83.4108C238.056 83.4108 240.626 85.2954 242.11 89.0649C242.11 89.0649 283.916 197.178 283.916 197.178C284.373 198.206 284.602 199.005 284.602 199.576C284.602 200.605 284.202 201.518 283.402 202.318C282.717 203.003 281.86 203.346 280.832 203.346C280.832 203.346 274.493 203.346 274.493 203.346C271.066 203.346 268.839 201.918 267.811 199.062C267.811 199.062 258.901 176.275 258.901 176.275C258.901 176.275 199.448 176.275 199.448 176.275ZM252.905 160.854C252.905 160.854 229.26 99.6876 229.26 99.6876C229.26 99.6876 205.445 160.854 205.445 160.854C205.445 160.854 252.905 160.854 252.905 160.854ZM395.285 156.914C395.171 166.394 393.057 174.675 388.945 181.757C384.833 188.725 379.179 194.094 371.983 197.863C364.787 201.518 356.506 203.346 347.139 203.346C347.139 203.346 306.875 203.346 306.875 203.346C305.619 203.346 304.534 202.889 303.62 201.975C302.706 201.061 302.249 199.976 302.249 198.72C302.249 198.72 302.249 88.0368 302.249 88.0368C302.249 86.7803 302.706 85.6952 303.62 84.7814C304.534 83.8676 305.619 83.4108 306.875 83.4108C306.875 83.4108 346.111 83.4108 346.111 83.4108C355.592 83.4108 363.987 85.2954 371.298 89.0649C378.722 92.7201 384.547 98.0886 388.774 105.17C393 112.138 395.17 120.362 395.285 129.843C395.399 133.269 395.456 137.781 395.456 143.378C395.456 148.975 395.399 153.487 395.285 156.914C395.285 156.914 395.285 156.914 395.285 156.914ZM318.526 98.8309C318.526 98.8309 318.526 187.925 318.526 187.925C318.526 187.925 346.283 187.925 346.283 187.925C357.705 187.925 365.929 184.956 370.955 179.016C376.095 173.076 378.779 165.423 379.008 156.057C379.122 152.63 379.179 148.404 379.179 143.378C379.179 138.352 379.122 134.126 379.008 130.699C378.779 121.447 375.981 113.851 370.612 107.912C365.244 101.858 356.848 98.8309 345.426 98.8309C345.426 98.8309 318.526 98.8309 318.526 98.8309Z"
            stroke="none" stroke-linejoin="miter" fill="rgba(0, 0, 0, 1)" stroke-linecap="butt"
            stroke-width="0.264583" fill-rule="evenodd" opacity="0" />
        <animate begin="indefinite" id="morphAnim12" keyTimes="0;0.86;0.88;1" values="0;0;1;1"
            attributeName="opacity" fill="freeze" calcMode="spline"
            keySplines="0 0 1 1;0 0 1 1;0 0 1 1"
            dur="0.833333s" />
    </g>

    <g transform="translate(528.335 -51.6648)">
        <path id="textCode"
            d="M-106.836 126.336C-106.836 126.336 -72.1551 126.336 -72.1551 126.336C-70.634 126.336 -69.5439 126.64 -68.8847 127.249C-68.2256 127.857 -67.896 128.643 -67.896 129.606C-67.896 130.519 -68.2256 131.28 -68.8847 131.888C-69.5438 132.497 -70.634 132.801 -72.1551 132.801C-72.1551 132.801 -106.836 132.801 -106.836 132.801C-106.836 132.801 -106.836 175.315 -106.836 175.315C-106.836 179.017 -105.366 182.11 -102.425 184.594C-99.4334 187.078 -95.073 188.321 -89.3435 188.321C-85.0337 188.321 -80.3691 187.687 -75.3494 186.419C-70.3298 185.101 -66.4257 183.631 -63.637 182.008C-62.623 181.349 -61.7864 181.02 -61.1272 181.02C-60.316 181.02 -59.6062 181.349 -58.9977 182.008C-58.3892 182.617 -58.085 183.352 -58.085 184.214C-58.085 184.974 -58.4146 185.684 -59.0737 186.343C-60.6963 188.017 -64.6511 189.842 -70.9382 191.819C-77.1748 193.746 -83.1577 194.709 -88.8873 194.709C-96.3406 194.709 -102.273 192.96 -106.684 189.462C-111.095 185.963 -113.301 181.248 -113.301 175.315C-113.301 175.315 -113.301 132.801 -113.301 132.801C-113.301 132.801 -125.089 132.801 -125.089 132.801C-126.61 132.801 -127.701 132.497 -128.36 131.888C-129.019 131.28 -129.348 130.494 -129.348 129.53C-129.348 128.618 -129.019 127.857 -128.36 127.249C-127.701 126.64 -126.61 126.336 -125.089 126.336C-125.089 126.336 -113.301 126.336 -113.301 126.336C-113.301 126.336 -113.301 107.474 -113.301 107.474C-113.301 105.953 -112.997 104.863 -112.388 104.204C-111.78 103.545 -111.019 103.215 -110.107 103.215C-109.143 103.215 -108.357 103.545 -107.749 104.204C-107.14 104.863 -106.836 105.953 -106.836 107.474C-106.836 107.474 -106.836 126.336 -106.836 126.336ZM-28.8677 96.7507C-28.8677 96.7507 -28.8677 136.071 -28.8677 136.071C-24.8114 131.66 -20.9327 128.567 -17.2314 126.792C-13.4793 124.967 -9.29636 124.054 -4.68237 124.054C0.286617 124.054 4.49491 124.942 7.94268 126.716C11.4413 128.44 14.3567 131.127 16.689 134.778C19.0214 138.378 20.1875 142.181 20.1875 146.186C20.1875 146.186 20.1875 185.811 20.1875 185.811C20.1875 185.811 27.3366 185.811 27.3366 185.811C28.9084 185.811 29.9985 186.115 30.6069 186.723C31.2661 187.281 31.5957 188.042 31.5957 189.005C31.5957 189.918 31.2661 190.678 30.6069 191.287C29.9985 191.895 28.9084 192.199 27.3366 192.199C27.3366 192.199 6.57369 192.199 6.57369 192.199C5.00186 192.199 3.88635 191.895 3.22726 191.287C2.56817 190.678 2.23858 189.918 2.23858 189.005C2.23858 188.042 2.56817 187.281 3.22726 186.723C3.88635 186.115 5.00186 185.811 6.57369 185.811C6.57369 185.811 13.7228 185.811 13.7228 185.811C13.7228 185.811 13.7228 146.643 13.7228 146.643C13.7228 142.029 12.0496 138.175 8.70319 135.082C5.40747 131.989 0.79348 130.443 -5.13878 130.443C-9.80349 130.443 -13.7837 131.584 -17.0794 133.865C-19.4625 135.488 -23.392 139.316 -28.8679 145.35C-28.8679 145.35 -28.8679 185.811 -28.8679 185.811C-28.8679 185.811 -21.6427 185.811 -21.6427 185.811C-20.1216 185.811 -19.0315 186.115 -18.3723 186.724C-17.7132 187.281 -17.3836 188.042 -17.3836 189.005C-17.3836 189.918 -17.7132 190.678 -18.3723 191.287C-19.0314 191.895 -20.1216 192.199 -21.6427 192.199C-21.6427 192.199 -42.4817 192.199 -42.4817 192.199C-44.0028 192.199 -45.0929 191.895 -45.7521 191.287C-46.4112 190.678 -46.7407 189.918 -46.7407 189.005C-46.7407 188.042 -46.4112 187.281 -45.7521 186.724C-45.093 186.115 -44.0028 185.811 -42.4817 185.811C-42.4817 185.811 -35.2564 185.811 -35.2564 185.811C-35.2564 185.811 -35.2564 103.215 -35.2564 103.215C-35.2564 103.215 -43.8506 103.215 -43.8506 103.215C-45.3718 103.215 -46.4619 102.911 -47.121 102.303C-47.78 101.694 -48.1096 100.908 -48.1096 99.945C-48.1096 99.0324 -47.78 98.2719 -47.121 97.6634C-46.4619 97.0549 -45.3718 96.7507 -43.8506 96.7507C-43.8506 96.7507 -28.8677 96.7507 -28.8677 96.7507ZM112.606 160.789C112.606 160.789 47.5035 160.789 47.5035 160.789C48.6189 169.054 52.0667 175.721 57.8469 180.791C63.6778 185.811 70.8776 188.321 79.4465 188.321C84.2126 188.321 89.2068 187.535 94.4292 185.963C99.6517 184.391 103.911 182.312 107.206 179.727C108.17 178.966 109.006 178.586 109.716 178.586C110.528 178.586 111.237 178.915 111.846 179.574C112.454 180.183 112.759 180.918 112.759 181.78C112.759 182.642 112.353 183.478 111.542 184.29C109.108 186.825 104.773 189.208 98.5363 191.439C92.3504 193.619 85.9872 194.709 79.4465 194.709C68.4945 194.709 59.3427 191.135 51.9907 183.986C44.6895 176.786 41.0388 168.09 41.0388 157.899C41.0388 148.62 44.4613 140.66 51.3062 134.018C58.2019 127.375 66.7199 124.054 76.8607 124.054C87.3056 124.054 95.8997 127.477 102.643 134.322C109.387 141.116 112.708 149.938 112.606 160.789C112.606 160.789 112.606 160.789 112.606 160.789ZM106.142 154.324C104.874 147.277 101.528 141.547 96.1024 137.136C90.7279 132.725 84.314 130.519 76.8606 130.519C69.4072 130.519 62.9933 132.699 57.6187 137.06C52.2442 141.42 48.8978 147.175 47.5795 154.324C47.5795 154.324 106.142 154.324 106.142 154.324ZM235.566 132.801C235.566 132.801 235.566 130.671 235.566 130.671C235.566 129.099 235.87 127.984 236.478 127.325C237.087 126.666 237.847 126.336 238.76 126.336C239.723 126.336 240.509 126.666 241.118 127.325C241.726 127.984 242.03 129.099 242.03 130.671C242.03 130.671 242.03 145.122 242.03 145.122C241.98 146.693 241.65 147.809 241.042 148.468C240.484 149.127 239.723 149.457 238.76 149.457C237.898 149.457 237.163 149.178 236.555 148.62C235.997 148.012 235.667 147.023 235.566 145.654C235.262 142.054 232.879 138.631 228.417 135.386C224.005 132.141 218.048 130.519 210.544 130.519C201.062 130.519 193.862 133.485 188.944 139.417C184.026 145.35 181.567 152.144 181.567 159.8C181.567 168.065 184.279 174.884 189.705 180.259C195.13 185.633 202.152 188.321 210.772 188.321C215.741 188.321 220.786 187.408 225.907 185.583C231.079 183.757 235.743 180.817 239.901 176.76C240.966 175.746 241.904 175.239 242.715 175.239C243.577 175.239 244.287 175.543 244.845 176.152C245.453 176.709 245.757 177.419 245.757 178.281C245.757 180.462 243.197 183.225 238.076 186.571C229.811 191.997 220.609 194.709 210.468 194.709C200.175 194.709 191.708 191.439 185.065 184.898C178.474 178.307 175.178 169.966 175.178 159.876C175.178 149.583 178.55 141.04 185.294 134.246C192.088 127.451 200.631 124.054 210.924 124.054C220.71 124.054 228.924 126.97 235.566 132.801C235.566 132.801 235.566 132.801 235.566 132.801ZM330.494 159.42C330.494 169.155 326.996 177.47 319.999 184.366C313.052 191.262 304.661 194.709 294.824 194.709C284.887 194.709 276.445 191.262 269.498 184.366C262.552 177.419 259.079 169.104 259.079 159.42C259.079 149.685 262.552 141.37 269.498 134.474C276.445 127.528 284.887 124.054 294.824 124.054C304.661 124.054 313.052 127.502 319.999 134.398C326.996 141.294 330.494 149.634 330.494 159.42ZM324.03 159.42C324.03 151.409 321.165 144.589 315.435 138.961C309.757 133.333 302.861 130.519 294.748 130.519C286.636 130.519 279.715 133.358 273.986 139.037C268.307 144.665 265.467 151.46 265.467 159.42C265.467 167.33 268.307 174.124 273.986 179.803C279.715 185.481 286.636 188.321 294.748 188.321C302.861 188.321 309.757 185.507 315.435 179.879C321.165 174.2 324.03 167.381 324.03 159.42C324.03 159.42 324.03 159.42 324.03 159.42ZM411.961 96.7507C411.961 96.7507 411.961 185.811 411.961 185.811C411.961 185.811 420.479 185.811 420.479 185.811C422.051 185.811 423.167 186.115 423.826 186.724C424.485 187.281 424.814 188.042 424.814 189.005C424.814 189.918 424.485 190.678 423.826 191.287C423.167 191.895 422.051 192.199 420.479 192.199C420.479 192.199 405.496 192.199 405.496 192.199C405.496 192.199 405.496 179.498 405.496 179.498C398.094 189.639 388.688 194.709 377.28 194.709C371.5 194.709 365.948 193.188 360.624 190.146C355.351 187.053 351.168 182.667 348.075 176.989C345.033 171.31 343.512 165.454 343.512 159.42C343.512 153.335 345.033 147.479 348.075 141.851C351.168 136.172 355.351 131.787 360.624 128.694C365.948 125.601 371.525 124.054 377.356 124.054C388.511 124.054 397.891 129.125 405.496 139.265C405.496 139.265 405.496 103.216 405.496 103.216C405.496 103.216 396.978 103.216 396.978 103.216C395.406 103.216 394.291 102.911 393.632 102.303C392.973 101.694 392.643 100.909 392.643 99.9451C392.643 99.0325 392.973 98.272 393.632 97.6635C394.291 97.055 395.406 96.7507 396.978 96.7507C396.978 96.7507 411.961 96.7507 411.961 96.7507ZM405.496 159.42C405.496 151.307 402.758 144.463 397.283 138.885C391.807 133.308 385.291 130.519 377.736 130.519C370.131 130.519 363.59 133.308 358.114 138.885C352.638 144.463 349.9 151.307 349.9 159.42C349.9 167.482 352.638 174.327 358.114 179.955C363.59 185.532 370.131 188.321 377.736 188.321C385.291 188.321 391.807 185.532 397.283 179.955C402.758 174.327 405.496 167.482 405.496 159.42ZM501.109 160.789C501.109 160.789 436.007 160.789 436.007 160.789C437.122 169.054 440.57 175.721 446.35 180.791C452.181 185.811 459.381 188.321 467.95 188.321C472.716 188.321 477.71 187.535 482.932 185.963C488.155 184.391 492.414 182.312 495.71 179.727C496.673 178.966 497.51 178.586 498.219 178.586C499.031 178.586 499.741 178.915 500.349 179.574C500.957 180.183 501.262 180.918 501.262 181.78C501.262 182.642 500.856 183.478 500.045 184.29C497.611 186.825 493.276 189.208 487.039 191.439C480.854 193.619 474.49 194.709 467.95 194.709C456.998 194.709 447.846 191.135 440.494 183.986C433.193 176.786 429.542 168.09 429.542 157.899C429.542 148.62 432.964 140.66 439.809 134.018C446.705 127.375 455.223 124.054 465.364 124.054C475.809 124.054 484.403 127.477 491.146 134.322C497.89 141.116 501.211 149.938 501.11 160.789C501.11 160.789 501.109 160.789 501.109 160.789ZM494.645 154.324C493.377 147.277 490.031 141.547 484.606 137.136C479.231 132.725 472.817 130.519 465.364 130.519C457.91 130.519 451.496 132.699 446.122 137.06C440.747 141.42 437.401 147.175 436.083 154.324C436.083 154.324 494.645 154.324 494.645 154.324Z"
            stroke="none" stroke-linejoin="miter" fill="rgba(0, 0, 0, 1)" stroke-linecap="butt"
            stroke-width="1" fill-rule="evenodd" opacity="0" />
        <animate begin="indefinite" id="morphAnim13" keyTimes="0;0;0.82;0.84;1" values="0;0;0;1;1"
            attributeName="opacity" fill="freeze" calcMode="spline"
            keySplines="0 0 1 1;0 0.333333 1 0.666667;0 0 1 1;0 0 1 1" dur="0.833333s" />
    </g>

    <g transform="translate(334.369 81.5195)">
        <path id="textIn"
            d="M103.406 123.92C103.406 123.92 103.406 140.424 103.406 140.424C103.406 140.424 93.9755 140.424 93.9755 140.424C93.9755 140.424 93.9755 123.92 93.9755 123.92C93.9755 123.92 103.406 123.92 103.406 123.92ZM103.635 156.7C103.635 156.7 103.635 216.175 103.635 216.175C103.635 216.175 128.733 216.175 128.733 216.175C130.305 216.175 131.42 216.479 132.079 217.087C132.738 217.645 133.068 218.406 133.068 219.369C133.068 220.282 132.738 221.042 132.079 221.651C131.42 222.259 130.305 222.563 128.733 222.563C128.733 222.563 72.1479 222.563 72.1479 222.563C70.6268 222.563 69.5367 222.259 68.8775 221.651C68.2184 221.042 67.8889 220.282 67.8889 219.369C67.8889 218.406 68.2184 217.645 68.8775 217.087C69.5366 216.479 70.6268 216.175 72.1479 216.175C72.1479 216.175 97.246 216.175 97.246 216.175C97.246 216.175 97.246 163.164 97.246 163.164C97.246 163.164 78.6126 163.164 78.6126 163.164C77.0914 163.164 75.976 162.86 75.2661 162.252C74.607 161.643 74.2774 160.883 74.2774 159.97C74.2774 159.007 74.607 158.221 75.2661 157.613C75.9252 157.004 77.0407 156.7 78.6126 156.7C78.6126 156.7 103.635 156.7 103.635 156.7ZM165.479 156.7C165.479 156.7 165.479 166.359 165.479 166.359C169.941 161.846 173.972 158.728 177.572 157.004C181.172 155.28 185.228 154.418 189.741 154.418C194.608 154.418 199.045 155.458 203.05 157.536C205.89 159.058 208.45 161.593 210.732 165.142C213.064 168.641 214.23 172.24 214.23 175.942C214.23 175.942 214.23 216.175 214.23 216.175C214.23 216.175 219.63 216.175 219.63 216.175C221.151 216.175 222.242 216.479 222.901 217.087C223.56 217.645 223.889 218.406 223.889 219.369C223.889 220.282 223.56 221.042 222.901 221.651C222.242 222.259 221.151 222.563 219.63 222.563C219.63 222.563 202.518 222.563 202.518 222.563C200.946 222.563 199.831 222.259 199.172 221.651C198.512 221.042 198.183 220.282 198.183 219.369C198.183 218.406 198.512 217.645 199.172 217.087C199.831 216.479 200.946 216.175 202.518 216.175C202.518 216.175 207.842 216.175 207.842 216.175C207.842 216.175 207.842 177.006 207.842 177.006C207.842 172.494 206.194 168.691 202.898 165.598C199.602 162.455 195.191 160.883 189.665 160.883C185.456 160.883 181.806 161.745 178.713 163.469C175.62 165.142 171.209 169.35 165.479 176.094C165.479 176.094 165.479 216.175 165.479 216.175C165.479 216.175 172.705 216.175 172.705 216.175C174.226 216.175 175.316 216.479 175.975 217.087C176.634 217.645 176.964 218.405 176.964 219.369C176.964 220.282 176.634 221.042 175.975 221.65C175.316 222.259 174.226 222.563 172.705 222.563C172.705 222.563 151.865 222.563 151.865 222.563C150.344 222.563 149.254 222.259 148.595 221.65C147.936 221.042 147.606 220.282 147.606 219.369C147.606 218.405 147.936 217.645 148.595 217.087C149.254 216.479 150.344 216.175 151.865 216.175C151.865 216.175 159.091 216.175 159.091 216.175C159.091 216.175 159.091 163.164 159.091 163.164C159.091 163.164 153.691 163.164 153.691 163.164C152.17 163.164 151.08 162.86 150.42 162.252C149.761 161.643 149.432 160.857 149.432 159.894C149.432 158.981 149.761 158.221 150.42 157.612C151.08 157.004 152.17 156.7 153.691 156.7C153.691 156.7 165.479 156.7 165.479 156.7Z"
            stroke="none" stroke-linejoin="miter" fill="rgba(0, 0, 0, 1)" stroke-linecap="butt"
            stroke-width="1" fill-rule="evenodd" opacity="0" />
        <animate begin="indefinite" id="morphAnim14" keyTimes="0;0;0.82;0.84;0.86;1"
            values="0;0;0;0;1;1" attributeName="opacity" fill="freeze" calcMode="spline"
            keySplines="0 0 1 1;0 0.333333 1 0.666667;0 0.333333 1 0.666667;0 0 1 1;0 0 1 1"
            dur="0.833333s" />
    </g>


    <script type="text/javascript"><![CDATA[ 
        document.addEventListener('DOMContentLoaded', function () {
            const channel = new BroadcastChannel('svg_channel');
            const popBubble = new BroadcastChannel('bubble');

            const toadElement = document.getElementById('textToad');
            const codeElement = document.getElementById('textCode');
            const inElement = document.getElementById('textIn');

            let hasPlayed = false;

            function playAnimations() {
                if (!hasPlayed) {
                    for (let i = 1; i <= 14; i++) {
                        const animation = document.getElementById(`morphAnim${i}`);
                        if (animation) {
                            animation.beginElement(); // Start the animation
                        }
                    }
                    toadElement.style.opacity = '1';
                    codeElement.style.opacity = '1';
                    inElement.style.opacity = '1';

                    hasPlayed = true;

                    popBubble.postMessage(hasPlayed);
                    setTimeout(() => {
                        const frameElement = document.getElementById('frame');
                        const bondBox = frameElement.getBoundingClientRect();
                        const coordinates = {
                            x: bondBox.x,
                            y: bondBox.y,
                            width: bondBox.width,
                            height: bondBox.height
                        };
                        <!-- console.log('SVG: Sending bounding rectangle:', coordinates); -->
                        channel.postMessage(coordinates);

                        document.getElementById('mySvg').style.cursor = 'default';
                    }, 1000);
                }
            }

            document.getElementById('mySvg').addEventListener('click', playAnimations);
        });
        ]]>
    </script>

    <style><![CDATA[ 
        #mySvg {
            cursor: pointer;
            <!-- filter: drop-shadow(4px 6px 6px rgb(5, 5, 5)); -->
        }
    ]]></style>

</svg>
